{
	"samplers":[{
		"magFilter":9729,
		"minFilter":9729,
		"wrapS":10497,
		"wrapT":10497
	}],
	"nodes":[{
		"name":"award 01.1",
		"translation":[0.0,
		0.0,
		0.0],
		"scale":[1.0,
		1.0,
		1.0],
		"rotation":[0.0,
		-0.15022559463977815,
		0.0,
		-0.9886517524719238],
		"children":[1,
		2,
		5]
	},
	{
		"name":"Gass dimond.2",
		"translation":[31.27110481262207,
		-41.39495086669922,
		22.375789642333986],
		"scale":[0.550000011920929,
		0.550000011920929,
		0.550000011920929],
		"rotation":[0.0,
		0.0,
		0.0,
		-1.0],
		"mesh":0
	},
	{
		"name":"front",
		"translation":[-12.163387298583985,
		-4.787368297576904,
		8.881784197001253e-16],
		"scale":[1.0,
		1.0,
		1.0],
		"rotation":[0.0,
		0.0,
		0.0,
		-1.0],
		"children":[3,
		4]
	},
	{
		"name":"front-Mat",
		"mesh":1
	},
	{
		"name":"front-Glass",
		"mesh":2
	},
	{
		"name":"Cylinder",
		"translation":[0.0,
		-117.00394439697266,
		0.0],
		"scale":[1.0,
		1.0,
		1.0],
		"rotation":[0.0,
		0.0,
		0.0,
		-1.0],
		"mesh":3
	}],
	"asset":{
		"version":"2.0",
		"generator":"Created using the official Cinema 4D glTF Exporter 1.000x284978"
	},
	"images":[{
		"uri":"data:image/png;base64,"
	}],
	"scenes":[{
		"nodes":[0]
	}],
	"materials":[{
		"pbrMetallicRoughness":{
			"baseColorFactor":[0.0,
			0.0,
			0.0,
			1.0],
			"metallicFactor":0.1600000023841858,
			"roughnessFactor":0.0
		},
		"emissiveFactor":[0.0,
		0.0,
		0.0],
		"alphaMode":"OPAQUE",
		"name":"dimond black",
		"doubleSided":true
	},
	{
		"pbrMetallicRoughness":{
			"baseColorTexture":{
				"index":0
			},
			"baseColorFactor":[1.0,
			1.0,
			1.0,
			1.0],
			"metallicFactor":1.0,
			"roughnessFactor":1.0
		},
		"emissiveFactor":[0.0,
		0.0,
		0.0],
		"alphaMode":"BLEND",
		"name":"Mat",
		"doubleSided":true
	},
	{
		"pbrMetallicRoughness":{
			"baseColorFactor":[1.0,
			1.0,
			1.0,
			0.09999999999999998],
			"metallicFactor":0.77,
			"roughnessFactor":0.06
		},
		"emissiveFactor":[0.0,
		0.0,
		0.0],
		"alphaMode":"BLEND",
		"name":"Glass",
		"doubleSided":true
	},
	{
		"pbrMetallicRoughness":{
			"baseColorFactor":[0.0,
			0.0,
			0.0,
			1.0],
			"metallicFactor":0.3,
			"roughnessFactor":0.05
		},
		"emissiveFactor":[0.0,
		0.0,
		0.0],
		"alphaMode":"OPAQUE",
		"name":"Base",
		"doubleSided":true
	}],
	"meshes":[{
		"name":"Gass dimond.2",
		"primitives":[{
			"attributes":{
				"POSITION":1
			},
			"indices":0,
			"material":0
		}]
	},
	{
		"name":"front-Mat",
		"primitives":[{
			"attributes":{
				"POSITION":3,
				"NORMAL":4,
				"TEXCOORD_0":5
			},
			"indices":2,
			"material":1
		}]
	},
	{
		"name":"front-Glass",
		"primitives":[{
			"attributes":{
				"POSITION":7,
				"NORMAL":8,
				"TEXCOORD_0":9
			},
			"indices":6,
			"material":2
		}]
	},
	{
		"name":"Cylinder",
		"primitives":[{
			"attributes":{
				"POSITION":11,
				"NORMAL":12,
				"TEXCOORD_0":13
			},
			"indices":10,
			"material":3
		}]
	}],
	"accessors":[{
		"min":[0],
		"bufferView":0,
		"type":"SCALAR",
		"componentType":5123,
		"count":888,
		"byteOffset":0,
		"max":[225]
	},
	{
		"min":[-253.60479736328126,
		-82.68314361572266,
		-14.108453750610352],
		"bufferView":1,
		"type":"VEC3",
		"componentType":5126,
		"count":226,
		"byteOffset":0,
		"max":[224.39939880371095,
		351.2186584472656,
		14.108453750610352]
	},
	{
		"min":[0],
		"bufferView":2,
		"type":"SCALAR",
		"componentType":5123,
		"count":582,
		"byteOffset":0,
		"max":[207]
	},
	{
		"min":[-253.60479736328126,
		-82.68314361572266,
		-7.5],
		"bufferView":3,
		"type":"VEC3",
		"componentType":5126,
		"count":208,
		"byteOffset":0,
		"max":[224.39939880371095,
		351.2186584472656,
		14.108453750610352]
	},
	{
		"min":[-0.7070937752723694,
		-1.0,
		0.0],
		"bufferView":3,
		"type":"VEC3",
		"componentType":5126,
		"count":208,
		"byteOffset":12,
		"max":[0.7070937752723694,
		0.7070937752723694,
		1.0]
	},
	{
		"min":[-0.9804468154907227,
		-2.6932590007781984],
		"bufferView":3,
		"type":"VEC2",
		"componentType":5126,
		"count":208,
		"byteOffset":24,
		"max":[1.9550681114196778,
		7.428656101226807]
	},
	{
		"min":[0],
		"bufferView":4,
		"type":"SCALAR",
		"componentType":5123,
		"count":96,
		"byteOffset":0,
		"max":[33]
	},
	{
		"min":[-253.60479736328126,
		-82.68314361572266,
		-6.550302982330322],
		"bufferView":5,
		"type":"VEC3",
		"componentType":5126,
		"count":34,
		"byteOffset":0,
		"max":[224.39939880371095,
		351.2186584472656,
		-6.550302982330322]
	},
	{
		"min":[0.0,
		0.0,
		-1.0],
		"bufferView":5,
		"type":"VEC3",
		"componentType":5126,
		"count":34,
		"byteOffset":12,
		"max":[0.0,
		0.0,
		-1.0]
	},
	{
		"min":[0.2576242685317993,
		0.08940473198890686],
		"bufferView":5,
		"type":"VEC2",
		"componentType":5126,
		"count":34,
		"byteOffset":24,
		"max":[0.689590573310852,
		0.7844851016998291]
	},
	{
		"min":[0],
		"bufferView":6,
		"type":"SCALAR",
		"componentType":5123,
		"count":4752,
		"byteOffset":0,
		"max":[946]
	},
	{
		"min":[-97.68970489501953,
		-29.53343391418457,
		-97.68970489501953],
		"bufferView":7,
		"type":"VEC3",
		"componentType":5126,
		"count":947,
		"byteOffset":0,
		"max":[97.68970489501953,
		29.53343391418457,
		97.68970489501953]
	},
	{
		"min":[-1.0,
		-1.0,
		-1.0],
		"bufferView":7,
		"type":"VEC3",
		"componentType":5126,
		"count":947,
		"byteOffset":12,
		"max":[1.0,
		1.0,
		1.0]
	},
	{
		"min":[0.0,
		0.0],
		"bufferView":7,
		"type":"VEC2",
		"componentType":5126,
		"count":947,
		"byteOffset":24,
		"max":[1.0,
		1.0]
	}],
	"bufferViews":[{
		"buffer":0,
		"byteOffset":0,
		"byteLength":1776,
		"target":34963
	},
	{
		"buffer":0,
		"byteOffset":1776,
		"byteLength":2712,
		"target":34962
	},
	{
		"buffer":1,
		"byteOffset":0,
		"byteLength":1164,
		"target":34963
	},
	{
		"buffer":1,
		"byteOffset":1164,
		"byteLength":6656,
		"target":34962,
		"byteStride":32
	},
	{
		"buffer":2,
		"byteOffset":0,
		"byteLength":192,
		"target":34963
	},
	{
		"buffer":2,
		"byteOffset":192,
		"byteLength":1088,
		"target":34962,
		"byteStride":32
	},
	{
		"buffer":3,
		"byteOffset":0,
		"byteLength":9504,
		"target":34963
	},
	{
		"buffer":3,
		"byteOffset":9504,
		"byteLength":30304,
		"target":34962,
		"byteStride":32
	}],
	"buffers":[{
		"uri":"data:application/octet-stream;base64,",
		"byteLength":4488
	},
	{
		"uri":"data:application/octet-stream;base64,",
		"byteLength":7820
	},
	{
		"uri":"data:application/octet-stream;base64,",
		"byteLength":1280
	},
	{
		"uri":"data:application/octet-stream;base64,",
		"byteLength":39808
	}],
	"textures":[{
		"sampler":0,
		"source":0
	}]
}