{
	"nodes":[{
		"name":"award 01.1",
		"translation":[0.0,
		0.0,
		0.0],
		"scale":[1.0,
		1.0,
		1.0],
		"rotation":[0.0,
		-0.41437557339668276,
		0.0,
		-0.9101059436798096],
		"children":[1,
		2,
		3]
	},
	{
		"name":"Gass dimond.2",
		"translation":[31.27110481262207,
		-41.39495086669922,
		22.375789642333986],
		"scale":[0.550000011920929,
		0.550000011920929,
		0.550000011920929],
		"rotation":[0.0,
		0.0,
		0.0,
		-1.0],
		"mesh":0
	},
	{
		"name":"front",
		"translation":[-12.163387298583985,
		-4.787368297576904,
		0.0],
		"scale":[1.0,
		1.0,
		1.0],
		"rotation":[0.0,
		0.0,
		0.0,
		-1.0],
		"mesh":1
	},
	{
		"name":"Cylinder",
		"translation":[0.0,
		-117.00394439697266,
		0.0],
		"scale":[1.0,
		1.0,
		1.0],
		"rotation":[0.0,
		0.0,
		0.0,
		-1.0],
		"mesh":2
	}],
	"asset":{
		"version":"2.0",
		"generator":"Created using the official Cinema 4D glTF Exporter 1.000x284978"
	},
	"scenes":[{
		"nodes":[0]
	}],
	"materials":[{
		"pbrMetallicRoughness":{
			"baseColorFactor":[0.0,
			0.0,
			0.0,
			1.0],
			"metallicFactor":0.1600000023841858,
			"roughnessFactor":0.0
		},
		"emissiveFactor":[0.0,
		0.0,
		0.0],
		"alphaMode":"OPAQUE",
		"name":"dimond black",
		"doubleSided":true
	},
	{
		"pbrMetallicRoughness":{
			"baseColorFactor":[0.0,
			0.0,
			0.0,
			1.0],
			"metallicFactor":0.3,
			"roughnessFactor":0.05
		},
		"emissiveFactor":[0.0,
		0.0,
		0.0],
		"alphaMode":"OPAQUE",
		"name":"Base",
		"doubleSided":true
	}],
	"meshes":[{
		"name":"Gass dimond.2",
		"primitives":[{
			"attributes":{
				"POSITION":1
			},
			"indices":0,
			"material":0
		}]
	},
	{
		"name":"front",
		"primitives":[{
			"attributes":{
				"POSITION":3
			},
			"indices":2,
			"material":0
		}]
	},
	{
		"name":"Cylinder",
		"primitives":[{
			"attributes":{
				"POSITION":5,
				"NORMAL":6,
				"TEXCOORD_0":7
			},
			"indices":4,
			"material":1
		}]
	}],
	"accessors":[{
		"min":[0],
		"bufferView":0,
		"type":"SCALAR",
		"componentType":5123,
		"count":888,
		"byteOffset":0,
		"max":[225]
	},
	{
		"min":[-253.60479736328126,
		-82.68314361572266,
		-14.108453750610352],
		"bufferView":1,
		"type":"VEC3",
		"componentType":5126,
		"count":226,
		"byteOffset":0,
		"max":[224.39939880371095,
		351.2186584472656,
		14.108453750610352]
	},
	{
		"min":[0],
		"bufferView":2,
		"type":"SCALAR",
		"componentType":5123,
		"count":678,
		"byteOffset":0,
		"max":[145]
	},
	{
		"min":[-253.60479736328126,
		-82.68314361572266,
		-7.5],
		"bufferView":3,
		"type":"VEC3",
		"componentType":5126,
		"count":146,
		"byteOffset":0,
		"max":[224.39939880371095,
		351.2186584472656,
		14.108453750610352]
	},
	{
		"min":[0],
		"bufferView":4,
		"type":"SCALAR",
		"componentType":5123,
		"count":4752,
		"byteOffset":0,
		"max":[946]
	},
	{
		"min":[-97.68970489501953,
		-29.53343391418457,
		-97.68970489501953],
		"bufferView":5,
		"type":"VEC3",
		"componentType":5126,
		"count":947,
		"byteOffset":0,
		"max":[97.68970489501953,
		29.53343391418457,
		97.68970489501953]
	},
	{
		"min":[-1.0,
		-1.0,
		-1.0],
		"bufferView":5,
		"type":"VEC3",
		"componentType":5126,
		"count":947,
		"byteOffset":12,
		"max":[1.0,
		1.0,
		1.0]
	},
	{
		"min":[0.0,
		0.0],
		"bufferView":5,
		"type":"VEC2",
		"componentType":5126,
		"count":947,
		"byteOffset":24,
		"max":[1.0,
		1.0]
	}],
	"bufferViews":[{
		"buffer":0,
		"byteOffset":0,
		"byteLength":1776,
		"target":34963
	},
	{
		"buffer":0,
		"byteOffset":1776,
		"byteLength":2712,
		"target":34962
	},
	{
		"buffer":1,
		"byteOffset":0,
		"byteLength":1356,
		"target":34963
	},
	{
		"buffer":1,
		"byteOffset":1356,
		"byteLength":1752,
		"target":34962
	},
	{
		"buffer":2,
		"byteOffset":0,
		"byteLength":9504,
		"target":34963
	},
	{
		"buffer":2,
		"byteOffset":9504,
		"byteLength":30304,
		"target":34962,
		"byteStride":32
	}],
	"buffers":[{
		"uri":"data:application/octet-stream;base64,",
		"byteLength":4488
	},
	{
		"uri":"data:application/octet-stream;base64,",
		"byteLength":3108
	},
	{
		"uri":"data:application/octet-stream;base64,",
		"byteLength":39808
	}]
}